<svg xmlns="http://www.w3.org/2000/svg" viewBox="0 0 720 960" role="img" aria-labelledby="title desc">
  <title id="title">Collage de prendas vintage LAMA</title>
  <desc id="desc">Campera, jeans, pañuelo y etiquetas de una tienda de moda circular.</desc>
  <defs>
    <linearGradient id="bg" x1="0" x2="1" y1="0" y2="1">
      <stop offset="0" stop-color="#ece5d8"/>
      <stop offset="0.46" stop-color="#9aa99a"/>
      <stop offset="1" stop-color="#293431"/>
    </linearGradient>
    <linearGradient id="leather" x1="0.12" x2="0.9" y1="0.02" y2="0.95">
      <stop offset="0" stop-color="#8d6a4b"/>
      <stop offset="0.36" stop-color="#533d31"/>
      <stop offset="1" stop-color="#211c18"/>
    </linearGradient>
    <linearGradient id="denim" x1="0.1" x2="0.9" y1="0" y2="1">
      <stop offset="0" stop-color="#607984"/>
      <stop offset="1" stop-color="#223b4a"/>
    </linearGradient>
    <filter id="soft" x="-20%" y="-20%" width="140%" height="140%">
      <feDropShadow dx="0" dy="24" stdDeviation="22" flood-color="#111716" flood-opacity="0.34"/>
    </filter>
    <pattern id="stitch" width="18" height="18" patternUnits="userSpaceOnUse">
      <path d="M1 9h6" stroke="#f2e9d9" stroke-width="2" stroke-linecap="round" opacity=".45"/>
    </pattern>
  </defs>
  <rect width="720" height="960" fill="url(#bg)"/>
  <path d="M50 122c108-66 217-86 327-60 129 31 223 123 300 222v676H0V188c13-21 30-43 50-66Z" fill="#17211f" opacity=".2"/>
  <g filter="url(#soft)">
    <path d="M398 58c72 10 140 40 191 91 50 50 72 94 75 132 7 78-43 124-65 199-20 70 4 167-54 240-51 65-146 89-236 73-72-13-137-56-166-118-39-84 22-143 27-226 5-76-39-154-3-230 38-80 130-175 231-161Z" fill="url(#leather)"/>
    <path d="M428 72c-45 100-30 210-9 319 24 124 52 247 15 371" fill="none" stroke="#161411" stroke-width="18" opacity=".35"/>
    <path d="M525 180c44 35 75 74 84 113 9 38-3 71-27 108" fill="none" stroke="#c2a47f" stroke-width="9" opacity=".22"/>
    <path d="M374 260h151a13 13 0 0 1 13 13v41a13 13 0 0 1-13 13H374a13 13 0 0 1-13-13v-41a13 13 0 0 1 13-13Z" fill="#1a1816" opacity=".55"/>
    <path d="M386 292h126" stroke="#d6b48d" stroke-width="5" stroke-linecap="round" opacity=".52"/>
    <path d="M542 481c-30 71-33 138-13 202" fill="none" stroke="#110f0e" stroke-width="42" stroke-linecap="round" opacity=".32"/>
    <path d="M560 496c-15 45-18 93-8 143" fill="none" stroke="#d0ab82" stroke-width="5" stroke-linecap="round" opacity=".38"/>
  </g>
  <g filter="url(#soft)">
    <path d="M79 572c112-28 226-36 341-24 51 5 93 45 99 96l29 233H122L79 572Z" fill="url(#denim)"/>
    <path d="M104 612c102-22 207-28 315-17" fill="none" stroke="#94adb5" stroke-width="5" opacity=".35"/>
    <path d="M262 585l32 292" stroke="#132a35" stroke-width="12" opacity=".45"/>
    <path d="M171 595c6 48 38 76 96 83" fill="none" stroke="#92aab4" stroke-width="6" opacity=".4"/>
    <path d="M91 692c79 16 155 20 229 12 81-9 150 2 207 34" fill="none" stroke="#132a35" stroke-width="8" opacity=".28"/>
  </g>
  <g filter="url(#soft)">
    <path d="M74 344c63-82 146-119 250-111 39 87 29 172-29 255-68 10-136-6-204-48-20-32-26-64-17-96Z" fill="#efe8d8"/>
    <path d="M91 368c62 24 112 64 151 121M152 312c38 56 89 94 153 115" fill="none" stroke="#a9584f" stroke-width="9" opacity=".62"/>
    <path d="M176 285c18 35 50 54 94 56" fill="none" stroke="#24342f" stroke-width="8" opacity=".34"/>
    <circle cx="201" cy="391" r="26" fill="#bca068" opacity=".62"/>
  </g>
  <g transform="translate(58 116) rotate(-7)">
    <rect width="148" height="72" rx="16" fill="#f6f1e7" opacity=".92"/>
    <text x="24" y="45" fill="#17211f" font-family="Arial, Helvetica, sans-serif" font-size="24" font-weight="800" letter-spacing="6">LAMA</text>
  </g>
  <rect x="0" y="0" width="720" height="960" fill="url(#stitch)" opacity=".18"/>
</svg>
